<svg width="99" height="50" viewBox="0 0 99 50" fill="none" xmlns="http://www.w3.org/2000/svg">
<path d="M11.6215 23.1716H5.38681V19.5804H11.6215C12.6413 19.5804 13.467 19.4142 14.0988 19.0816C14.7417 18.738 15.2127 18.2725 15.512 17.6851C15.8113 17.0865 15.9609 16.4049 15.9609 15.6401C15.9609 14.8974 15.8113 14.2047 15.512 13.5618C15.2127 12.919 14.7417 12.398 14.0988 11.999C13.467 11.6 12.6413 11.4005 11.6215 11.4005H6.88314V32H2.31101V7.79262H11.6215C13.5058 7.79262 15.113 8.13068 16.4431 8.8068C17.7842 9.47184 18.8039 10.3974 19.5022 11.5833C20.2116 12.7582 20.5663 14.0994 20.5663 15.6068C20.5663 17.1697 20.2116 18.5164 19.5022 19.6469C18.8039 20.7775 17.7842 21.6476 16.4431 22.2572C15.113 22.8668 13.5058 23.1716 11.6215 23.1716Z" fill="white"/>
<path d="M29.7373 32H24.5167L24.55 28.4088H29.7373C31.1449 28.4088 32.3254 28.0984 33.2786 27.4777C34.2318 26.846 34.9523 25.9426 35.44 24.7677C35.9277 23.5817 36.1715 22.163 36.1715 20.5115V19.2645C36.1715 17.9899 36.033 16.8648 35.7559 15.8895C35.4788 14.9141 35.0686 14.0939 34.5255 13.4288C33.9935 12.7638 33.334 12.2595 32.547 11.9159C31.7601 11.5723 30.8567 11.4005 29.837 11.4005H24.417V7.79262H29.837C31.4553 7.79262 32.9294 8.06418 34.2595 8.60729C35.6007 9.15041 36.759 9.93183 37.7343 10.9516C38.7208 11.9602 39.4745 13.1683 39.9955 14.576C40.5275 15.9837 40.7935 17.5576 40.7935 19.2978V20.5115C40.7935 22.2406 40.5275 23.8145 39.9955 25.2332C39.4745 26.6409 38.7208 27.8491 37.7343 28.8577C36.759 29.8663 35.5951 30.6422 34.2429 31.1853C32.8907 31.7284 31.3888 32 29.7373 32ZM27.0771 7.79262V32H22.505V7.79262H27.0771Z" fill="#FF3C20"/>
<path d="M55.9618 25.7154C55.9618 25.2499 55.8897 24.8342 55.7457 24.4684C55.6126 24.0916 55.3633 23.7535 54.9975 23.4543C54.6428 23.1439 54.1385 22.8446 53.4845 22.5565C52.8417 22.2572 52.0104 21.9468 50.9906 21.6254C49.8601 21.2707 48.8071 20.8717 47.8317 20.4283C46.8563 19.985 45.9973 19.4696 45.2547 18.8821C44.5231 18.2947 43.9523 17.6186 43.5422 16.8538C43.1321 16.0779 42.927 15.1801 42.927 14.1604C42.927 13.1628 43.1376 12.2539 43.5588 11.4337C43.9911 10.6135 44.6007 9.90966 45.3877 9.32221C46.1746 8.72368 47.1002 8.26369 48.1642 7.94226C49.2394 7.62082 50.4253 7.4601 51.7222 7.4601C53.5178 7.4601 55.0695 7.78708 56.3774 8.44103C57.6964 9.09499 58.7162 9.98171 59.4366 11.1012C60.1571 12.2207 60.5173 13.4787 60.5173 14.8753H55.9618C55.9618 14.1216 55.8011 13.4565 55.4796 12.8802C55.1693 12.3038 54.6927 11.8494 54.0498 11.5168C53.418 11.1843 52.62 11.0181 51.6557 11.0181C50.7246 11.0181 49.9487 11.1566 49.328 11.4337C48.7184 11.7108 48.2584 12.0877 47.9481 12.5643C47.6488 13.0409 47.4992 13.5729 47.4992 14.1604C47.4992 14.6037 47.6045 15.0027 47.8151 15.3574C48.0257 15.701 48.3416 16.028 48.7628 16.3384C49.1839 16.6376 49.7049 16.9203 50.3256 17.1863C50.9574 17.4412 51.6889 17.6961 52.5202 17.9511C53.8503 18.3501 55.0141 18.7935 56.0117 19.2812C57.0203 19.7688 57.8571 20.323 58.5222 20.9437C59.1983 21.5644 59.7026 22.2627 60.0351 23.0386C60.3787 23.8145 60.5506 24.6957 60.5506 25.6821C60.5506 26.724 60.3455 27.6551 59.9354 28.4753C59.5253 29.2955 58.9378 29.9938 58.173 30.5702C57.4082 31.1465 56.4883 31.5844 55.4131 31.8836C54.3491 32.1829 53.1575 32.3325 51.8386 32.3325C50.6637 32.3325 49.4998 32.1773 48.3471 31.867C47.2055 31.5456 46.1691 31.0689 45.2381 30.4372C44.307 29.7943 43.5644 28.9852 43.0102 28.0098C42.456 27.0233 42.1789 25.8706 42.1789 24.5516H46.7676C46.7676 25.3164 46.8896 25.9703 47.1334 26.5134C47.3883 27.0455 47.743 27.4833 48.1975 27.8269C48.663 28.1594 49.2061 28.4033 49.8268 28.5584C50.4475 28.7136 51.1181 28.7912 51.8386 28.7912C52.7696 28.7912 53.5344 28.6637 54.1329 28.4088C54.7426 28.1428 55.197 27.777 55.4963 27.3115C55.8066 26.846 55.9618 26.3139 55.9618 25.7154Z" fill="white"/>
<path d="M2.29972 48.2615C2.22845 48.2615 2.17143 48.2401 2.12867 48.1974C2.0859 48.1546 2.06452 48.0976 2.06452 48.0263V40.9062C2.06452 40.8349 2.0859 40.7779 2.12867 40.7351C2.17143 40.6923 2.22845 40.671 2.29972 40.671H2.48147C2.55274 40.671 2.60976 40.6923 2.65252 40.7351C2.69528 40.7779 2.71667 40.8349 2.71667 40.9062V41.4086C2.89485 41.1663 3.12648 40.9667 3.41158 40.8099C3.70379 40.646 4.07085 40.564 4.51274 40.564C4.93325 40.564 5.28605 40.6389 5.57114 40.7886C5.85623 40.9311 6.08787 41.1235 6.26605 41.3659C6.44423 41.6082 6.57608 41.879 6.66161 42.1784C6.74714 42.4777 6.79347 42.7842 6.80059 43.0978C6.80772 43.2047 6.81128 43.3223 6.81128 43.4506C6.81128 43.5789 6.80772 43.6965 6.80059 43.8034C6.79347 44.117 6.74714 44.4235 6.66161 44.7228C6.57608 45.0222 6.44423 45.293 6.26605 45.5353C6.08787 45.7776 5.85623 45.9736 5.57114 46.1233C5.28605 46.2659 4.93325 46.3371 4.51274 46.3371C4.07085 46.3371 3.70379 46.2552 3.41158 46.0912C3.12648 45.9273 2.89485 45.7278 2.71667 45.4926V48.0263C2.71667 48.0976 2.69528 48.1546 2.65252 48.1974C2.60976 48.2401 2.55274 48.2615 2.48147 48.2615H2.29972ZM4.44859 45.7171C4.8691 45.7171 5.20052 45.6244 5.44285 45.4391C5.68518 45.2538 5.85979 45.0115 5.9667 44.7121C6.07361 44.4128 6.13419 44.092 6.14845 43.7499C6.15558 43.5504 6.15558 43.3508 6.14845 43.1512C6.13419 42.8091 6.07361 42.4884 5.9667 42.1891C5.85979 41.8897 5.68518 41.6474 5.44285 41.4621C5.20052 41.2768 4.8691 41.1841 4.44859 41.1841C4.04234 41.1841 3.71448 41.2803 3.46503 41.4728C3.21558 41.6652 3.03027 41.9075 2.9091 42.1998C2.79507 42.4848 2.73092 42.7735 2.71667 43.0657C2.70954 43.1726 2.70598 43.3116 2.70598 43.4827C2.70598 43.6537 2.70954 43.7927 2.71667 43.8996C2.72379 44.1847 2.78794 44.4662 2.9091 44.7442C3.03739 45.0222 3.22627 45.2538 3.47572 45.4391C3.7323 45.6244 4.05659 45.7171 4.44859 45.7171ZM8.92867 46.2302C8.8574 46.2302 8.80038 46.2088 8.75762 46.1661C8.71485 46.1233 8.69347 46.0663 8.69347 45.995V40.9062C8.69347 40.8349 8.71485 40.7779 8.75762 40.7351C8.80038 40.6923 8.8574 40.671 8.92867 40.671H9.11042C9.18169 40.671 9.23871 40.6923 9.28147 40.7351C9.32423 40.7779 9.34562 40.8349 9.34562 40.9062V45.995C9.34562 46.0663 9.32423 46.1233 9.28147 46.1661C9.23871 46.2088 9.18169 46.2302 9.11042 46.2302H8.92867ZM8.81107 39.527C8.7398 39.527 8.68278 39.5056 8.64002 39.4629C8.59725 39.4201 8.57587 39.3631 8.57587 39.2918V38.8856C8.57587 38.8143 8.59725 38.7573 8.64002 38.7145C8.68278 38.6646 8.7398 38.6397 8.81107 38.6397H9.21732C9.2886 38.6397 9.34562 38.6646 9.38838 38.7145C9.43827 38.7573 9.46322 38.8143 9.46322 38.8856V39.2918C9.46322 39.3631 9.43827 39.4201 9.38838 39.4629C9.34562 39.5056 9.2886 39.527 9.21732 39.527H8.81107ZM11.2235 46.2302C11.1665 46.2302 11.1166 46.2088 11.0739 46.1661C11.0311 46.1233 11.0097 46.0734 11.0097 46.0164C11.0097 45.9879 11.0133 45.9594 11.0204 45.9309C11.0347 45.8952 11.0596 45.8525 11.0952 45.8026L12.9768 43.3864L11.1915 41.0986C11.1558 41.0487 11.1309 41.0095 11.1166 40.981C11.1095 40.9454 11.1059 40.9133 11.1059 40.8848C11.1059 40.8278 11.1273 40.7779 11.1701 40.7351C11.2128 40.6923 11.2627 40.671 11.3198 40.671H11.5443C11.6155 40.671 11.669 40.6888 11.7046 40.7244C11.7474 40.76 11.783 40.7957 11.8115 40.8313L13.4152 42.8947L15.0188 40.842C15.0544 40.8064 15.0901 40.7707 15.1257 40.7351C15.1614 40.6923 15.2148 40.671 15.2861 40.671H15.4999C15.5569 40.671 15.6068 40.6923 15.6496 40.7351C15.6923 40.7779 15.7137 40.8278 15.7137 40.8848C15.7137 40.9133 15.7066 40.9454 15.6923 40.981C15.6852 41.0095 15.6638 41.0487 15.6282 41.0986L13.8214 43.4185L15.703 45.8026C15.7387 45.8525 15.76 45.8952 15.7672 45.9309C15.7814 45.9594 15.7886 45.9879 15.7886 46.0164C15.7886 46.0734 15.7672 46.1233 15.7244 46.1661C15.6816 46.2088 15.6318 46.2302 15.5747 46.2302H15.3502C15.279 46.2302 15.2219 46.2124 15.1792 46.1768C15.1435 46.1411 15.1115 46.1055 15.083 46.0699L13.3938 43.9103L11.7046 46.0699C11.6761 46.1055 11.6405 46.1411 11.5977 46.1768C11.5621 46.2124 11.5086 46.2302 11.4374 46.2302H11.2235ZM19.454 46.3371C18.9409 46.3371 18.5097 46.2302 18.1604 46.0164C17.8183 45.8026 17.5546 45.5104 17.3693 45.1398C17.1911 44.7691 17.0949 44.3558 17.0807 43.8996C17.0735 43.7927 17.07 43.643 17.07 43.4506C17.07 43.2582 17.0735 43.1085 17.0807 43.0016C17.0949 42.5383 17.1911 42.1249 17.3693 41.7614C17.5546 41.3908 17.8183 41.0986 18.1604 40.8848C18.5097 40.671 18.9409 40.564 19.454 40.564C19.9672 40.564 20.3948 40.671 20.7369 40.8848C21.0862 41.0986 21.3499 41.3908 21.5281 41.7614C21.7134 42.1249 21.8132 42.5383 21.8274 43.0016C21.8345 43.1085 21.8381 43.2582 21.8381 43.4506C21.8381 43.643 21.8345 43.7927 21.8274 43.8996C21.8132 44.3558 21.7134 44.7691 21.5281 45.1398C21.3499 45.5104 21.0862 45.8026 20.7369 46.0164C20.3948 46.2302 19.9672 46.3371 19.454 46.3371ZM19.454 45.7171C19.9529 45.7171 20.3592 45.5567 20.6728 45.236C20.9864 44.9152 21.1539 44.452 21.1753 43.8462C21.1824 43.7392 21.186 43.6074 21.186 43.4506C21.186 43.2938 21.1824 43.1619 21.1753 43.055C21.1539 42.4421 20.9864 41.9788 20.6728 41.6652C20.3592 41.3445 19.9529 41.1841 19.454 41.1841C18.9551 41.1841 18.5489 41.3445 18.2353 41.6652C17.9217 41.9788 17.7542 42.4421 17.7328 43.055C17.7257 43.1619 17.7221 43.2938 17.7221 43.4506C17.7221 43.6074 17.7257 43.7392 17.7328 43.8462C17.7542 44.452 17.9217 44.9152 18.2353 45.236C18.5489 45.5567 18.9551 45.7171 19.454 45.7171ZM25.7362 46.3371C25.3228 46.3371 24.97 46.2623 24.6778 46.1126C24.3927 45.963 24.1611 45.7634 23.9829 45.5139C23.8047 45.2645 23.6729 44.9865 23.5873 44.68C23.5089 44.3736 23.4626 44.0635 23.4483 43.7499C23.4412 43.643 23.4377 43.5432 23.4377 43.4506C23.4377 43.3579 23.4412 43.2582 23.4483 43.1512C23.4626 42.8376 23.5089 42.5276 23.5873 42.2211C23.6729 41.9147 23.8047 41.6367 23.9829 41.3872C24.1611 41.1378 24.3927 40.9382 24.6778 40.7886C24.97 40.6389 25.3228 40.564 25.7362 40.564C26.1781 40.564 26.5416 40.646 26.8267 40.8099C27.1189 40.9739 27.3541 41.1734 27.5323 41.4086V38.8749C27.5323 38.8036 27.5537 38.7466 27.5964 38.7038C27.6392 38.6611 27.6962 38.6397 27.7675 38.6397H27.9492C28.0205 38.6397 28.0775 38.6611 28.1203 38.7038C28.163 38.7466 28.1844 38.8036 28.1844 38.8749V45.995C28.1844 46.0663 28.163 46.1233 28.1203 46.1661C28.0775 46.2088 28.0205 46.2302 27.9492 46.2302H27.7675C27.6962 46.2302 27.6392 46.2088 27.5964 46.1661C27.5537 46.1233 27.5323 46.0663 27.5323 45.995V45.4926C27.3541 45.7349 27.1189 45.938 26.8267 46.1019C26.5416 46.2587 26.1781 46.3371 25.7362 46.3371ZM25.8003 45.7171C26.2066 45.7171 26.5345 45.6208 26.7839 45.4284C27.0334 45.236 27.2187 44.9972 27.3398 44.7121C27.461 44.4199 27.5251 44.1277 27.5323 43.8355C27.5394 43.7286 27.543 43.5896 27.543 43.4185C27.543 43.2475 27.5394 43.1085 27.5323 43.0016C27.5251 42.7165 27.4574 42.435 27.3291 42.157C27.208 41.879 27.0227 41.6474 26.7732 41.4621C26.5238 41.2768 26.1995 41.1841 25.8003 41.1841C25.387 41.1841 25.0555 41.2768 24.8061 41.4621C24.5638 41.6474 24.3891 41.8897 24.2822 42.1891C24.1753 42.4884 24.1147 42.8091 24.1005 43.1512C24.0934 43.3508 24.0934 43.5504 24.1005 43.7499C24.1147 44.092 24.1753 44.4128 24.2822 44.7121C24.3891 45.0115 24.5638 45.2538 24.8061 45.4391C25.0555 45.6244 25.387 45.7171 25.8003 45.7171ZM31.2963 48.2615C31.2393 48.2615 31.1894 48.2401 31.1466 48.1974C31.1039 48.1546 31.0825 48.1047 31.0825 48.0477C31.0825 48.0192 31.0861 47.9871 31.0932 47.9515C31.1074 47.923 31.1253 47.8838 31.1466 47.8339L31.9698 45.9095L29.9279 41.0986C29.8851 40.9917 29.8637 40.9204 29.8637 40.8848C29.8637 40.8278 29.8851 40.7779 29.9279 40.7351C29.9706 40.6923 30.0205 40.671 30.0775 40.671H30.3021C30.3733 40.671 30.4268 40.6888 30.4624 40.7244C30.5052 40.7529 30.5337 40.7886 30.5479 40.8313L32.344 45.0649L34.1829 40.8313C34.2042 40.7886 34.2327 40.7529 34.2684 40.7244C34.304 40.6888 34.3575 40.671 34.4287 40.671H34.6426C34.6996 40.671 34.7495 40.6923 34.7922 40.7351C34.835 40.7779 34.8564 40.8278 34.8564 40.8848C34.8564 40.9204 34.835 40.9917 34.7922 41.0986L31.756 48.1011C31.7346 48.1439 31.7061 48.1795 31.6705 48.208C31.6349 48.2437 31.5814 48.2615 31.5101 48.2615H31.2963ZM36.7083 46.2302C36.6371 46.2302 36.58 46.2088 36.5373 46.1661C36.4945 46.1233 36.4731 46.0663 36.4731 45.995V40.9062C36.4731 40.8349 36.4945 40.7779 36.5373 40.7351C36.58 40.6923 36.6371 40.671 36.7083 40.671H36.8901C36.9613 40.671 37.0184 40.6923 37.0611 40.7351C37.1039 40.7779 37.1253 40.8349 37.1253 40.9062V41.4086C37.3177 41.1592 37.5493 40.956 37.8202 40.7992C38.0981 40.6424 38.4652 40.564 38.9213 40.564C39.406 40.564 39.8087 40.671 40.1294 40.8848C40.4573 41.0915 40.6996 41.3766 40.8564 41.74C41.0203 42.0964 41.1023 42.5027 41.1023 42.9588V45.995C41.1023 46.0663 41.0809 46.1233 41.0381 46.1661C40.9954 46.2088 40.9384 46.2302 40.8671 46.2302H40.6853C40.6141 46.2302 40.5571 46.2088 40.5143 46.1661C40.4715 46.1233 40.4501 46.0663 40.4501 45.995V43.0123C40.4501 42.4421 40.3112 41.9966 40.0332 41.6759C39.7552 41.348 39.349 41.1841 38.8144 41.1841C38.3084 41.1841 37.8986 41.348 37.585 41.6759C37.2785 41.9966 37.1253 42.4421 37.1253 43.0123V45.995C37.1253 46.0663 37.1039 46.1233 37.0611 46.1661C37.0184 46.2088 36.9613 46.2302 36.8901 46.2302H36.7083ZM44.7035 46.3371C44.3613 46.3371 44.0442 46.2659 43.752 46.1233C43.4669 45.9808 43.2352 45.7919 43.0571 45.5567C42.8789 45.3144 42.7898 45.0435 42.7898 44.7442C42.7898 44.2595 42.9858 43.8711 43.3778 43.5789C43.7698 43.2867 44.2794 43.0978 44.9066 43.0123L46.5957 42.7771V42.4029C46.5957 42.0251 46.4781 41.7294 46.2429 41.5155C46.0149 41.2946 45.6478 41.1841 45.1418 41.1841C44.7712 41.1841 44.4718 41.259 44.2437 41.4086C44.0157 41.5512 43.8589 41.74 43.7733 41.9752C43.7377 42.0822 43.67 42.1356 43.5702 42.1356H43.3992C43.3136 42.1356 43.2531 42.1142 43.2174 42.0715C43.1818 42.0216 43.164 41.9646 43.164 41.9004C43.164 41.8006 43.1996 41.6759 43.2709 41.5262C43.3493 41.3766 43.4669 41.2304 43.6237 41.0879C43.7805 40.9382 43.9836 40.8135 44.2331 40.7137C44.4825 40.6139 44.7854 40.564 45.1418 40.564C45.5623 40.564 45.908 40.6211 46.1788 40.7351C46.4568 40.8491 46.6706 40.9988 46.8203 41.1841C46.9771 41.3623 47.0875 41.5619 47.1517 41.7828C47.2158 42.0038 47.2479 42.2211 47.2479 42.435V45.995C47.2479 46.0663 47.2265 46.1233 47.1837 46.1661C47.141 46.2088 47.084 46.2302 47.0127 46.2302H46.8309C46.7597 46.2302 46.7027 46.2088 46.6599 46.1661C46.6171 46.1233 46.5957 46.0663 46.5957 45.995V45.4926C46.5102 45.6208 46.3891 45.7491 46.2323 45.8774C46.0755 46.0057 45.8723 46.1162 45.6229 46.2088C45.3805 46.2944 45.0741 46.3371 44.7035 46.3371ZM44.8104 45.7171C45.1382 45.7171 45.4376 45.6458 45.7084 45.5032C45.9792 45.3607 46.1931 45.1433 46.3499 44.8511C46.5138 44.5518 46.5957 44.1776 46.5957 43.7286V43.3651L45.2166 43.5575C44.6322 43.6359 44.1903 43.7713 43.8909 43.9638C43.5916 44.1562 43.4419 44.3985 43.4419 44.6907C43.4419 44.9259 43.5096 45.1184 43.6451 45.268C43.7805 45.4177 43.9515 45.5318 44.1582 45.6102C44.372 45.6814 44.5894 45.7171 44.8104 45.7171ZM49.6013 46.2302C49.53 46.2302 49.473 46.2088 49.4303 46.1661C49.3875 46.1233 49.3661 46.0663 49.3661 45.995V40.9062C49.3661 40.8349 49.3875 40.7779 49.4303 40.7351C49.473 40.6923 49.53 40.671 49.6013 40.671H49.7831C49.8543 40.671 49.9114 40.6923 49.9541 40.7351C49.9969 40.7779 50.0183 40.8349 50.0183 40.9062V41.2803C50.1964 41.0523 50.4067 40.8776 50.649 40.7565C50.8985 40.6282 51.1978 40.564 51.5471 40.564C52.3453 40.564 52.9155 40.899 53.2576 41.569C53.4215 41.2625 53.6603 41.0202 53.9739 40.842C54.2946 40.6567 54.6617 40.564 55.0751 40.564C55.4528 40.564 55.7914 40.6531 56.0907 40.8313C56.3972 41.0024 56.6359 41.259 56.807 41.6011C56.9852 41.9432 57.0743 42.3708 57.0743 42.884V45.995C57.0743 46.0663 57.0529 46.1233 57.0101 46.1661C56.9674 46.2088 56.9103 46.2302 56.8391 46.2302H56.6573C56.586 46.2302 56.529 46.2088 56.4863 46.1661C56.4435 46.1233 56.4221 46.0663 56.4221 45.995V42.9909C56.4221 42.5205 56.3544 42.157 56.219 41.9004C56.0836 41.6367 55.9054 41.4514 55.6844 41.3445C55.4635 41.2376 55.2247 41.1841 54.9682 41.1841C54.7543 41.1841 54.537 41.2376 54.316 41.3445C54.0951 41.4514 53.9098 41.6367 53.7601 41.9004C53.6175 42.157 53.5463 42.5205 53.5463 42.9909V45.995C53.5463 46.0663 53.5249 46.1233 53.4821 46.1661C53.4394 46.2088 53.3823 46.2302 53.3111 46.2302H53.1293C53.058 46.2302 53.001 46.2088 52.9583 46.1661C52.9155 46.1233 52.8941 46.0663 52.8941 45.995V42.9909C52.8941 42.5205 52.8228 42.157 52.6803 41.9004C52.5378 41.6367 52.356 41.4514 52.1351 41.3445C51.9141 41.2376 51.6825 41.1841 51.4402 41.1841C51.2263 41.1841 51.009 41.2376 50.788 41.3445C50.5671 41.4514 50.3818 41.6367 50.2321 41.9004C50.0895 42.157 50.0183 42.5169 50.0183 42.9802V45.995C50.0183 46.0663 49.9969 46.1233 49.9541 46.1661C49.9114 46.2088 49.8543 46.2302 49.7831 46.2302H49.6013ZM59.4148 46.2302C59.3435 46.2302 59.2865 46.2088 59.2438 46.1661C59.201 46.1233 59.1796 46.0663 59.1796 45.995V40.9062C59.1796 40.8349 59.201 40.7779 59.2438 40.7351C59.2865 40.6923 59.3435 40.671 59.4148 40.671H59.5966C59.6678 40.671 59.7249 40.6923 59.7676 40.7351C59.8104 40.7779 59.8318 40.8349 59.8318 40.9062V45.995C59.8318 46.0663 59.8104 46.1233 59.7676 46.1661C59.7249 46.2088 59.6678 46.2302 59.5966 46.2302H59.4148ZM59.2972 39.527C59.2259 39.527 59.1689 39.5056 59.1262 39.4629C59.0834 39.4201 59.062 39.3631 59.062 39.2918V38.8856C59.062 38.8143 59.0834 38.7573 59.1262 38.7145C59.1689 38.6646 59.2259 38.6397 59.2972 38.6397H59.7035C59.7747 38.6397 59.8318 38.6646 59.8745 38.7145C59.9244 38.7573 59.9494 38.8143 59.9494 38.8856V39.2918C59.9494 39.3631 59.9244 39.4201 59.8745 39.4629C59.8318 39.5056 59.7747 39.527 59.7035 39.527H59.2972ZM64.0938 46.3371C63.5949 46.3371 63.1708 46.2409 62.8215 46.0485C62.4723 45.8489 62.205 45.5638 62.0197 45.1932C61.8415 44.8226 61.7453 44.3843 61.7311 43.8782C61.7239 43.7713 61.7204 43.6288 61.7204 43.4506C61.7204 43.2724 61.7239 43.1299 61.7311 43.023C61.7453 42.5098 61.8415 42.0715 62.0197 41.708C62.205 41.3374 62.4723 41.0558 62.8215 40.8634C63.1708 40.6638 63.5949 40.564 64.0938 40.564C64.4715 40.564 64.7958 40.6175 65.0666 40.7244C65.3446 40.8242 65.5727 40.9596 65.7509 41.1307C65.929 41.2946 66.0645 41.4763 66.1571 41.6759C66.2498 41.8755 66.2997 42.0715 66.3068 42.2639C66.3139 42.3352 66.2925 42.3922 66.2426 42.435C66.1927 42.4777 66.1357 42.4991 66.0716 42.4991H65.9219C65.8506 42.4991 65.7972 42.4848 65.7615 42.4563C65.733 42.4207 65.701 42.3601 65.6653 42.2746C65.5157 41.8683 65.309 41.5868 65.0453 41.43C64.7887 41.2661 64.4715 41.1841 64.0938 41.1841C63.6091 41.1841 63.2064 41.3338 62.8857 41.6331C62.5721 41.9254 62.4046 42.4064 62.3832 43.0764C62.369 43.3259 62.369 43.5753 62.3832 43.8248C62.4046 44.4947 62.5721 44.9794 62.8857 45.2787C63.2064 45.571 63.6091 45.7171 64.0938 45.7171C64.4715 45.7171 64.7887 45.6387 65.0453 45.4819C65.309 45.3179 65.5157 45.0328 65.6653 44.6266C65.701 44.5411 65.733 44.484 65.7615 44.4555C65.7972 44.4199 65.8506 44.4021 65.9219 44.4021H66.0716C66.1357 44.4021 66.1927 44.4235 66.2426 44.4662C66.2925 44.509 66.3139 44.566 66.3068 44.6373C66.2997 44.7941 66.2676 44.9509 66.2106 45.1077C66.1535 45.2645 66.0645 45.4177 65.9433 45.5674C65.8293 45.7171 65.6867 45.8489 65.5157 45.963C65.3446 46.077 65.1379 46.1661 64.8956 46.2302C64.6604 46.3015 64.3931 46.3371 64.0938 46.3371ZM69.911 46.3371C69.5404 46.3371 69.2197 46.2872 68.9489 46.1875C68.6851 46.0877 68.4678 45.9701 68.2967 45.8347C68.1257 45.6921 67.9974 45.5531 67.9118 45.4177C67.8334 45.2823 67.7907 45.179 67.7835 45.1077C67.7764 45.0293 67.8014 44.9723 67.8584 44.9366C67.9154 44.8939 67.9689 44.8725 68.0187 44.8725H68.1791C68.2219 44.8725 68.2575 44.8796 68.286 44.8939C68.3217 44.9081 68.3644 44.9473 68.4143 45.0115C68.507 45.1326 68.6139 45.2502 68.735 45.3643C68.8562 45.4712 69.0094 45.5567 69.1947 45.6208C69.3872 45.685 69.6259 45.7171 69.911 45.7171C70.3387 45.7171 70.6915 45.6351 70.9694 45.4712C71.2474 45.3072 71.3864 45.0649 71.3864 44.7442C71.3864 44.5446 71.3294 44.3843 71.2153 44.2631C71.1084 44.1419 70.9231 44.035 70.6594 43.9424C70.3957 43.8497 70.0393 43.7535 69.5903 43.6537C69.1413 43.5468 68.7956 43.4185 68.5533 43.2688C68.3181 43.1192 68.1577 42.9481 68.0722 42.7557C67.9867 42.5561 67.9439 42.3423 67.9439 42.1142C67.9439 41.8648 68.0152 41.6224 68.1577 41.3872C68.3003 41.1449 68.5105 40.9489 68.7885 40.7992C69.0736 40.6424 69.4299 40.564 69.8576 40.564C70.2068 40.564 70.5026 40.6104 70.7449 40.703C70.9944 40.7957 71.1975 40.9097 71.3543 41.0451C71.5111 41.1734 71.6251 41.3017 71.6964 41.43C71.7748 41.5583 71.8176 41.6616 71.8247 41.74C71.8318 41.8113 71.8105 41.8683 71.7606 41.9111C71.7107 41.9539 71.6537 41.9752 71.5895 41.9752H71.4291C71.3721 41.9752 71.3258 41.9646 71.2902 41.9432C71.2545 41.9147 71.2225 41.879 71.1939 41.8363C71.1227 41.7222 71.0371 41.6153 70.9374 41.5155C70.8376 41.4158 70.7022 41.3374 70.5311 41.2803C70.3672 41.2162 70.1427 41.1841 69.8576 41.1841C69.4299 41.1841 69.1128 41.2732 68.9061 41.4514C68.6994 41.6224 68.5961 41.8434 68.5961 42.1142C68.5961 42.271 68.6388 42.41 68.7243 42.5312C68.8099 42.6452 68.9702 42.7521 69.2054 42.8519C69.4406 42.9446 69.7827 43.0443 70.2318 43.1512C70.6879 43.251 71.0478 43.3758 71.3115 43.5254C71.5753 43.668 71.7606 43.839 71.8675 44.0386C71.9815 44.2382 72.0385 44.4734 72.0385 44.7442C72.0385 45.0293 71.9566 45.293 71.7926 45.5353C71.6358 45.7776 71.3971 45.9736 71.0763 46.1233C70.7627 46.2659 70.3743 46.3371 69.911 46.3371ZM74.0825 48.2615C74.0112 48.2615 73.9542 48.2401 73.9114 48.1974C73.8687 48.1546 73.8473 48.0976 73.8473 48.0263V40.9062C73.8473 40.8349 73.8687 40.7779 73.9114 40.7351C73.9542 40.6923 74.0112 40.671 74.0825 40.671H74.2642C74.3355 40.671 74.3925 40.6923 74.4353 40.7351C74.4781 40.7779 74.4994 40.8349 74.4994 40.9062V41.4086C74.6776 41.1663 74.9093 40.9667 75.1944 40.8099C75.4866 40.646 75.8536 40.564 76.2955 40.564C76.716 40.564 77.0688 40.6389 77.3539 40.7886C77.639 40.9311 77.8706 41.1235 78.0488 41.3659C78.227 41.6082 78.3589 41.879 78.4444 42.1784C78.5299 42.4777 78.5762 42.7842 78.5834 43.0978C78.5905 43.2047 78.5941 43.3223 78.5941 43.4506C78.5941 43.5789 78.5905 43.6965 78.5834 43.8034C78.5762 44.117 78.5299 44.4235 78.4444 44.7228C78.3589 45.0222 78.227 45.293 78.0488 45.5353C77.8706 45.7776 77.639 45.9736 77.3539 46.1233C77.0688 46.2659 76.716 46.3371 76.2955 46.3371C75.8536 46.3371 75.4866 46.2552 75.1944 46.0912C74.9093 45.9273 74.6776 45.7278 74.4994 45.4926V48.0263C74.4994 48.0976 74.4781 48.1546 74.4353 48.1974C74.3925 48.2401 74.3355 48.2615 74.2642 48.2615H74.0825ZM76.2314 45.7171C76.6519 45.7171 76.9833 45.6244 77.2256 45.4391C77.468 45.2538 77.6426 45.0115 77.7495 44.7121C77.8564 44.4128 77.917 44.092 77.9312 43.7499C77.9384 43.5504 77.9384 43.3508 77.9312 43.1512C77.917 42.8091 77.8564 42.4884 77.7495 42.1891C77.6426 41.8897 77.468 41.6474 77.2256 41.4621C76.9833 41.2768 76.6519 41.1841 76.2314 41.1841C75.8251 41.1841 75.4973 41.2803 75.2478 41.4728C74.9984 41.6652 74.813 41.9075 74.6919 42.1998C74.5778 42.4848 74.5137 42.7735 74.4994 43.0657C74.4923 43.1726 74.4888 43.3116 74.4888 43.4827C74.4888 43.6537 74.4923 43.7927 74.4994 43.8996C74.5066 44.1847 74.5707 44.4662 74.6919 44.7442C74.8202 45.0222 75.009 45.2538 75.2585 45.4391C75.5151 45.6244 75.8394 45.7171 76.2314 45.7171ZM81.973 46.3371C81.6309 46.3371 81.3137 46.2659 81.0215 46.1233C80.7364 45.9808 80.5048 45.7919 80.3266 45.5567C80.1484 45.3144 80.0593 45.0435 80.0593 44.7442C80.0593 44.2595 80.2553 43.8711 80.6473 43.5789C81.0393 43.2867 81.5489 43.0978 82.1761 43.0123L83.8653 42.7771V42.4029C83.8653 42.0251 83.7477 41.7294 83.5125 41.5155C83.2844 41.2946 82.9173 41.1841 82.4113 41.1841C82.0407 41.1841 81.7413 41.259 81.5133 41.4086C81.2852 41.5512 81.1284 41.74 81.0429 41.9752C81.0072 42.0822 80.9395 42.1356 80.8397 42.1356H80.6687C80.5832 42.1356 80.5226 42.1142 80.4869 42.0715C80.4513 42.0216 80.4335 41.9646 80.4335 41.9004C80.4335 41.8006 80.4691 41.6759 80.5404 41.5262C80.6188 41.3766 80.7364 41.2304 80.8932 41.0879C81.05 40.9382 81.2531 40.8135 81.5026 40.7137C81.752 40.6139 82.0549 40.564 82.4113 40.564C82.8318 40.564 83.1775 40.6211 83.4483 40.7351C83.7263 40.8491 83.9401 40.9988 84.0898 41.1841C84.2466 41.3623 84.357 41.5619 84.4212 41.7828C84.4853 42.0038 84.5174 42.2211 84.5174 42.435V45.995C84.5174 46.0663 84.496 46.1233 84.4533 46.1661C84.4105 46.2088 84.3535 46.2302 84.2822 46.2302H84.1005C84.0292 46.2302 83.9722 46.2088 83.9294 46.1661C83.8866 46.1233 83.8653 46.0663 83.8653 45.995V45.4926C83.7797 45.6208 83.6586 45.7491 83.5018 45.8774C83.345 46.0057 83.1418 46.1162 82.8924 46.2088C82.6501 46.2944 82.3436 46.3371 81.973 46.3371ZM82.0799 45.7171C82.4077 45.7171 82.7071 45.6458 82.9779 45.5032C83.2488 45.3607 83.4626 45.1433 83.6194 44.8511C83.7833 44.5518 83.8653 44.1776 83.8653 43.7286V43.3651L82.4861 43.5575C81.9017 43.6359 81.4598 43.7713 81.1605 43.9638C80.8611 44.1562 80.7114 44.3985 80.7114 44.6907C80.7114 44.9259 80.7792 45.1184 80.9146 45.268C81.05 45.4177 81.221 45.5318 81.4277 45.6102C81.6416 45.6814 81.8589 45.7171 82.0799 45.7171ZM88.7417 46.3371C88.2428 46.3371 87.8188 46.2409 87.4695 46.0485C87.1203 45.8489 86.853 45.5638 86.6677 45.1932C86.4895 44.8226 86.3933 44.3843 86.379 43.8782C86.3719 43.7713 86.3684 43.6288 86.3684 43.4506C86.3684 43.2724 86.3719 43.1299 86.379 43.023C86.3933 42.5098 86.4895 42.0715 86.6677 41.708C86.853 41.3374 87.1203 41.0558 87.4695 40.8634C87.8188 40.6638 88.2428 40.564 88.7417 40.564C89.1195 40.564 89.4438 40.6175 89.7146 40.7244C89.9926 40.8242 90.2206 40.9596 90.3988 41.1307C90.577 41.2946 90.7124 41.4763 90.8051 41.6759C90.8977 41.8755 90.9476 42.0715 90.9548 42.2639C90.9619 42.3352 90.9405 42.3922 90.8906 42.435C90.8407 42.4777 90.7837 42.4991 90.7196 42.4991H90.5699C90.4986 42.4991 90.4452 42.4848 90.4095 42.4563C90.381 42.4207 90.3489 42.3601 90.3133 42.2746C90.1636 41.8683 89.9569 41.5868 89.6932 41.43C89.4366 41.2661 89.1195 41.1841 88.7417 41.1841C88.2571 41.1841 87.8544 41.3338 87.5337 41.6331C87.2201 41.9254 87.0526 42.4064 87.0312 43.0764C87.0169 43.3259 87.0169 43.5753 87.0312 43.8248C87.0526 44.4947 87.2201 44.9794 87.5337 45.2787C87.8544 45.571 88.2571 45.7171 88.7417 45.7171C89.1195 45.7171 89.4366 45.6387 89.6932 45.4819C89.9569 45.3179 90.1636 45.0328 90.3133 44.6266C90.3489 44.5411 90.381 44.484 90.4095 44.4555C90.4452 44.4199 90.4986 44.4021 90.5699 44.4021H90.7196C90.7837 44.4021 90.8407 44.4235 90.8906 44.4662C90.9405 44.509 90.9619 44.566 90.9548 44.6373C90.9476 44.7941 90.9156 44.9509 90.8585 45.1077C90.8015 45.2645 90.7124 45.4177 90.5913 45.5674C90.4772 45.7171 90.3347 45.8489 90.1636 45.963C89.9926 46.077 89.7859 46.1661 89.5436 46.2302C89.3084 46.3015 89.0411 46.3371 88.7417 46.3371ZM94.8584 46.3371C94.167 46.3371 93.6182 46.1126 93.212 45.6636C92.8057 45.2075 92.5741 44.6123 92.517 43.8782C92.5099 43.7713 92.5064 43.6288 92.5064 43.4506C92.5064 43.2724 92.5099 43.1299 92.517 43.023C92.5527 42.5383 92.6667 42.1107 92.8592 41.74C93.0516 41.3694 93.3153 41.0808 93.6503 40.8741C93.9924 40.6674 94.3951 40.564 94.8584 40.564C95.3573 40.564 95.7813 40.6745 96.1306 40.8955C96.4798 41.1164 96.7471 41.4336 96.9324 41.847C97.1248 42.2603 97.221 42.7521 97.221 43.3223V43.4827C97.221 43.5539 97.1961 43.611 97.1462 43.6537C97.1034 43.6965 97.0464 43.7179 96.9752 43.7179H93.1692C93.1692 43.7179 93.1692 43.7321 93.1692 43.7606C93.1692 43.7891 93.1692 43.8105 93.1692 43.8248C93.1834 44.1455 93.2583 44.452 93.3937 44.7442C93.5291 45.0293 93.7216 45.2645 93.971 45.4498C94.2205 45.628 94.5162 45.7171 94.8584 45.7171C95.1648 45.7171 95.4178 45.6707 95.6174 45.5781C95.8241 45.4854 95.988 45.3856 96.1092 45.2787C96.2304 45.1647 96.3088 45.0792 96.3444 45.0222C96.4085 44.9295 96.4584 44.876 96.4941 44.8618C96.5297 44.8404 96.5867 44.8297 96.6651 44.8297H96.8362C96.9003 44.8297 96.9538 44.8511 96.9965 44.8939C97.0464 44.9295 97.0678 44.9794 97.0607 45.0435C97.0536 45.1433 96.9965 45.268 96.8896 45.4177C96.7898 45.5603 96.6437 45.7028 96.4513 45.8454C96.266 45.9879 96.0379 46.1055 95.7671 46.1982C95.4962 46.2908 95.1933 46.3371 94.8584 46.3371ZM93.1692 43.1192H96.5689V43.0764C96.5689 42.72 96.5012 42.3993 96.3658 42.1142C96.2304 41.8291 96.0344 41.6046 95.7778 41.4407C95.5212 41.2696 95.2147 41.1841 94.8584 41.1841C94.502 41.1841 94.1955 41.2696 93.9389 41.4407C93.6895 41.6046 93.497 41.8291 93.3616 42.1142C93.2333 42.3993 93.1692 42.72 93.1692 43.0764V43.1192Z" fill="white"/>
<path d="M70.1652 9.07105H73.0343C73.5744 9.07105 74.0806 9.47601 74.1818 9.98243L76.2071 20.6145C76.2071 20.7158 76.2408 20.7833 76.2747 20.8846L77.3549 26.5213C77.5913 27.5339 78.5024 28.3102 79.5487 28.3102H92.7798C93.1511 28.3102 93.4548 28.0065 93.4548 27.6352C93.4548 27.2639 93.151 26.9602 92.7798 26.9602H79.5487C79.1437 26.9602 78.7724 26.6565 78.6712 26.2852L78.4348 24.9352H92.8135C93.1172 24.9352 93.3872 24.7327 93.4548 24.429L96.1551 13.6281C96.1888 13.4257 96.1551 13.2232 96.0202 13.0544C95.8853 12.8856 95.6826 12.7843 95.4801 12.7843L76.106 12.7841L75.5323 9.71254C75.2961 8.56501 74.2499 7.72119 73.0347 7.72119H70.1656C69.7943 7.72119 69.4906 8.02491 69.4906 8.39619C69.4906 8.76746 69.7943 9.07118 70.1656 9.07118L70.1652 9.07105ZM84.6789 23.5847H83.5987L83.3623 21.3233H84.6786L84.6789 23.5847ZM84.6789 19.973H83.2276L83.0251 17.9478H84.6791L84.6789 19.973ZM92.7795 14.2352V14.1339H94.602L93.9946 16.5978H92.3745L92.7795 14.2352ZM92.1382 17.9481H93.657L93.1508 19.9734H91.8008L92.1382 17.9481ZM92.8134 21.3233L92.2394 23.5848H91.1931L91.5644 21.3233H92.8134ZM89.4042 14.134H91.4295L91.0246 16.5979H89.1681L89.4045 14.2013C89.4043 14.1679 89.4043 14.1679 89.4043 14.134L89.4042 14.134ZM89.033 17.9481H90.7882L90.4505 19.9734H88.8305L89.033 17.9481ZM88.6956 21.3234H90.2144L89.8431 23.5848H88.4592L88.6956 21.3234ZM86.029 14.1341H88.0543L87.8179 16.598H86.029L86.029 14.1341ZM86.029 17.9482H87.6829L87.4804 19.9735H86.0292L86.029 17.9482ZM86.029 21.3235H87.3453L87.1092 23.5849H86.029V21.3235ZM84.679 14.1341V16.598H82.8901L82.6537 14.1341H84.679ZM82.2488 23.5849H80.8649L80.4936 21.3235H82.0124L82.2488 23.5849ZM81.8775 19.9732H80.2574L79.9198 17.9479H81.675L81.8775 19.9732ZM81.3037 14.1341V14.2016L81.5401 16.5982H79.6837L79.2785 14.1341L81.3037 14.1341ZM79.481 23.5848H78.131L77.6921 21.3234H79.1097L79.481 23.5848ZM78.9072 19.9732H77.4896L77.1183 17.9479H78.5695L78.9072 19.9732ZM77.9285 14.134V14.2353L78.3335 16.5979H76.8483L76.3758 14.134L77.9285 14.134Z" fill="#DD290D"/>
<path d="M82.9915 31.179C82.9915 32.0178 82.3113 32.6978 81.4727 32.6978C80.6338 32.6978 79.9536 32.0178 79.9536 31.179C79.9536 30.3401 80.6338 29.6602 81.4727 29.6602C82.3113 29.6602 82.9915 30.3401 82.9915 31.179Z" fill="#DD290D"/>
<path d="M91.0917 31.179C91.0917 32.0178 90.4118 32.6978 89.5729 32.6978C88.734 32.6978 88.0541 32.0178 88.0541 31.179C88.0541 30.3401 88.734 29.6602 89.5729 29.6602C90.4118 29.6602 91.0917 30.3401 91.0917 31.179Z" fill="#DD290D"/>
</svg>
