<svg width="19" height="18" viewBox="0 0 19 18" fill="none" xmlns="http://www.w3.org/2000/svg">
<path d="M0.470149 1.53352H2.4697C2.84611 1.53352 3.19888 1.81575 3.26945 2.16869L4.68092 9.57849C4.68092 9.64905 4.70439 9.69614 4.72801 9.7667L5.48084 13.6951C5.64558 14.4008 6.28059 14.9418 7.00976 14.9418H16.2308C16.4896 14.9418 16.7013 14.7301 16.7013 14.4714C16.7013 14.2126 16.4896 14.001 16.2308 14.001H7.00976C6.72754 14.001 6.46877 13.7893 6.3982 13.5305L6.23346 12.5897H16.2543C16.466 12.5897 16.6542 12.4486 16.7013 12.2369L18.5832 4.70949C18.6067 4.56838 18.5832 4.42726 18.4892 4.30962C18.3952 4.19197 18.2539 4.12141 18.1128 4.12141L4.61048 4.12125L4.21061 1.9806C4.04603 1.18085 3.31685 0.592773 2.46998 0.592773H0.470422C0.211658 0.592773 0 0.804444 0 1.06319C0 1.32195 0.211671 1.53362 0.470422 1.53362L0.470149 1.53352ZM10.5851 11.6485H9.83229L9.66754 10.0724H10.5849L10.5851 11.6485ZM10.5851 9.13142H9.5737L9.43259 7.71995H10.5853L10.5851 9.13142ZM16.2307 5.13253V5.06197H17.5008L17.0775 6.77912H15.9484L16.2307 5.13253ZM15.7837 7.72016H16.8422L16.4894 9.13163H15.5486L15.7837 7.72016ZM16.2543 10.0725L15.8542 11.6485H15.1251L15.3838 10.0725H16.2543ZM13.8784 5.06204H15.2898L15.0076 6.77919H13.7138L13.8785 5.10896C13.8784 5.08566 13.8784 5.08566 13.8784 5.06203L13.8784 5.06204ZM13.6196 7.7202H14.8428L14.6075 9.13168H13.4785L13.6196 7.7202ZM13.3845 10.0725H14.443L14.1842 11.6486H13.2197L13.3845 10.0725ZM11.526 5.06208H12.9375L12.7728 6.77923H11.526L11.526 5.06208ZM11.526 7.72024H12.6787L12.5376 9.13172H11.5262L11.526 7.72024ZM11.526 10.0726H12.4434L12.2789 11.6486H11.526V10.0726ZM10.5852 5.06213V6.77927H9.33847L9.17373 5.06213H10.5852ZM8.89153 11.6486H7.92704L7.66828 10.0726H8.72678L8.89153 11.6486ZM8.63277 9.13155H7.5037L7.2684 7.72008H8.49165L8.63277 9.13155ZM8.2329 5.06208V5.10918L8.39764 6.77941H7.10382L6.82143 5.06209L8.2329 5.06208ZM6.96256 11.6486H6.02172L5.71587 10.0725H6.70384L6.96256 11.6486ZM6.56269 9.13151H5.57471L5.31595 7.72003H6.32736L6.56269 9.13151ZM5.8806 5.06204V5.1326L6.16283 6.77918H5.12777L4.79845 5.06203L5.8806 5.06204Z" fill="black"/>
<path d="M9.40892 16.9413C9.40892 17.5259 8.93488 17.9998 8.35042 17.9998C7.76578 17.9998 7.29175 17.5259 7.29175 16.9413C7.29175 16.3567 7.76578 15.8828 8.35042 15.8828C8.93488 15.8828 9.40892 16.3567 9.40892 16.9413Z" fill="black"/>
<path d="M15.0545 16.9413C15.0545 17.5259 14.5806 17.9998 13.996 17.9998C13.4114 17.9998 12.9375 17.5259 12.9375 16.9413C12.9375 16.3567 13.4114 15.8828 13.996 15.8828C14.5806 15.8828 15.0545 16.3567 15.0545 16.9413Z" fill="black"/>
</svg>
